<svg width="171" height="22" viewBox="0 0 171 22" fill="none" xmlns="http://www.w3.org/2000/svg">
<path d="M5.04 2.1H0.5V16H5.04C9.5 16 12.42 13.38 12.42 9.1C12.42 4.8 9.5 2.1 5.04 2.1ZM2.78 14.14V3.96H5.04C8.32 3.96 10.08 5.92 10.08 9.1C10.08 12.26 8.32 14.14 5.04 14.14H2.78ZM14.7797 16H17.0597V4.98H14.7797V16ZM15.9397 3.52C16.7397 3.52 17.3797 2.88 17.3797 2.06C17.3797 1.24 16.7397 0.599999 15.9397 0.599999C15.1197 0.599999 14.4797 1.24 14.4797 2.06C14.4797 2.88 15.1197 3.52 15.9397 3.52ZM28.3731 12.92C28.2531 8.94 22.0331 10.18 22.0331 7.96C22.0331 7.22 22.6731 6.72 23.8931 6.72C25.1331 6.72 25.8731 7.38 25.9531 8.34H28.2331C28.1131 6.14 26.4731 4.8 23.9731 4.8C21.3731 4.8 19.7331 6.22 19.7331 7.98C19.7331 12.02 26.1331 10.78 26.1331 12.94C26.1331 13.7 25.4331 14.26 24.1131 14.26C22.8531 14.26 21.9931 13.52 21.9131 12.62H19.5531C19.6531 14.62 21.5131 16.18 24.1531 16.18C26.7531 16.18 28.3731 14.78 28.3731 12.92ZM30.1767 10.48C30.1767 13.94 32.4167 16.18 35.5767 16.18C38.2767 16.18 40.0367 14.68 40.6567 12.52H38.1967C37.7767 13.66 36.9367 14.26 35.5767 14.26C33.7367 14.26 32.5167 12.9 32.5167 10.48C32.5167 8.08 33.7367 6.72 35.5767 6.72C36.9367 6.72 37.8167 7.4 38.1967 8.46H40.6567C40.0367 6.14 38.2767 4.8 35.5767 4.8C32.4167 4.8 30.1767 7.04 30.1767 10.48ZM53.5289 10.48C53.5289 7.02 51.0489 4.8 47.9089 4.8C44.7689 4.8 42.2889 7.02 42.2889 10.48C42.2889 13.94 44.6689 16.18 47.8089 16.18C50.9689 16.18 53.5289 13.94 53.5289 10.48ZM44.6089 10.48C44.6089 7.98 46.1489 6.78 47.8689 6.78C49.5689 6.78 51.1889 7.98 51.1889 10.48C51.1889 12.98 49.5089 14.2 47.8089 14.2C46.0889 14.2 44.6089 12.98 44.6089 10.48ZM54.5828 4.98L58.7628 16H61.4828L65.6828 4.98H63.2628L60.1428 13.96L57.0228 4.98H54.5828ZM72.1462 6.72C73.8462 6.72 75.1862 7.8 75.2262 9.5H69.1262C69.3662 7.76 70.6062 6.72 72.1462 6.72ZM77.3062 12.72H74.8462C74.4262 13.58 73.6462 14.26 72.2462 14.26C70.5662 14.26 69.2662 13.16 69.1062 11.34H77.5262C77.5862 10.96 77.6062 10.6 77.6062 10.22C77.6062 6.98 75.3862 4.8 72.2462 4.8C68.9862 4.8 66.7462 7.02 66.7462 10.48C66.7462 13.94 69.0862 16.18 72.2462 16.18C74.9462 16.18 76.6862 14.64 77.3062 12.72ZM82.23 10.2C82.23 7.86 83.27 7.16 84.95 7.16H85.53V4.8C83.97 4.8 82.87 5.48 82.23 6.58V4.98H79.95V16H82.23V10.2ZM103.521 10.48C103.521 7.02 101.041 4.8 97.9011 4.8C94.7611 4.8 92.2811 7.02 92.2811 10.48C92.2811 13.94 94.6611 16.18 97.8011 16.18C100.961 16.18 103.521 13.94 103.521 10.48ZM94.6011 10.48C94.6011 7.98 96.1411 6.78 97.8611 6.78C99.5611 6.78 101.181 7.98 101.181 10.48C101.181 12.98 99.5011 14.2 97.8011 14.2C96.0811 14.2 94.6011 12.98 94.6011 10.48ZM115.855 4.98H113.575V11.12C113.575 13.14 112.475 14.18 110.795 14.18C109.135 14.18 108.035 13.14 108.035 11.12V4.98H105.775V11.46C105.775 14.54 107.735 16.16 110.315 16.16C111.615 16.16 112.855 15.62 113.575 14.68V16H115.855V4.98ZM121.243 10.2C121.243 7.86 122.283 7.16 123.963 7.16H124.543V4.8C122.983 4.8 121.883 5.48 121.243 6.58V4.98H118.963V16H121.243V10.2ZM131.274 10.44C131.274 13.84 133.574 16.18 136.434 16.18C138.274 16.18 139.594 15.3 140.294 14.36V16H142.594V4.98H140.294V6.58C139.614 5.68 138.334 4.8 136.474 4.8C133.574 4.8 131.274 7.04 131.274 10.44ZM140.294 10.48C140.294 12.86 138.674 14.2 136.954 14.2C135.254 14.2 133.614 12.82 133.614 10.44C133.614 8.06 135.254 6.78 136.954 6.78C138.674 6.78 140.294 8.12 140.294 10.48ZM147.969 6.6V4.98H145.689V21.24H147.969V14.4C148.689 15.26 149.989 16.18 151.809 16.18C154.709 16.18 156.989 13.84 156.989 10.44C156.989 7.04 154.709 4.8 151.809 4.8C150.009 4.8 148.669 5.68 147.969 6.6ZM154.669 10.44C154.669 12.82 153.029 14.2 151.309 14.2C149.609 14.2 147.969 12.86 147.969 10.48C147.969 8.12 149.609 6.78 151.309 6.78C153.029 6.78 154.669 8.06 154.669 10.44ZM161.624 6.6V4.98H159.344V21.24H161.624V14.4C162.344 15.26 163.644 16.18 165.464 16.18C168.364 16.18 170.644 13.84 170.644 10.44C170.644 7.04 168.364 4.8 165.464 4.8C163.664 4.8 162.324 5.68 161.624 6.6ZM168.324 10.44C168.324 12.82 166.684 14.2 164.964 14.2C163.264 14.2 161.624 12.86 161.624 10.48C161.624 8.12 163.264 6.78 164.964 6.78C166.684 6.78 168.324 8.06 168.324 10.44Z" fill="#5E6282"/>
</svg>
